<mxfile host="Electron" modified="2023-10-30T17:09:13.486Z" agent="Mozilla/5.0 (Windows NT 10.0; Win64; x64) AppleWebKit/537.36 (KHTML, like Gecko) draw.io/21.6.8 Chrome/114.0.5735.289 Electron/25.5.0 Safari/537.36" etag="QDIqS-UASjcSrdlf0a8y" version="21.6.8" type="device">
  <diagram name="Page-1" id="_KW2tzE4d3pq3ApItzUw">
    <mxGraphModel dx="978" dy="571" grid="1" gridSize="10" guides="1" tooltips="1" connect="1" arrows="1" fold="1" page="1" pageScale="1" pageWidth="850" pageHeight="1100" math="0" shadow="0">
      <root>
        <mxCell id="0" />
        <mxCell id="1" parent="0" />
        <mxCell id="4gS_K6R-Jrko7peNRE4J-1" value="" style="rounded=0;whiteSpace=wrap;html=1;shadow=1;fontFamily=Computer Modern;" parent="1" vertex="1">
          <mxGeometry x="411" y="320" width="138" height="163" as="geometry" />
        </mxCell>
        <mxCell id="4gS_K6R-Jrko7peNRE4J-2" value="" style="rounded=0;whiteSpace=wrap;html=1;shadow=1;fontFamily=Computer Modern;" parent="1" vertex="1">
          <mxGeometry x="160" y="320" width="230" height="230" as="geometry" />
        </mxCell>
        <mxCell id="4gS_K6R-Jrko7peNRE4J-3" value="" style="rounded=0;whiteSpace=wrap;html=1;fontFamily=Computer Modern;" parent="1" vertex="1">
          <mxGeometry x="276" y="390" width="100" height="20" as="geometry" />
        </mxCell>
        <mxCell id="4gS_K6R-Jrko7peNRE4J-4" value="" style="endArrow=none;html=1;rounded=0;fontFamily=Computer Modern;" parent="1" edge="1">
          <mxGeometry width="50" height="50" relative="1" as="geometry">
            <mxPoint x="276" y="450" as="sourcePoint" />
            <mxPoint x="316" y="450" as="targetPoint" />
            <Array as="points">
              <mxPoint x="296" y="450" />
            </Array>
          </mxGeometry>
        </mxCell>
        <mxCell id="4gS_K6R-Jrko7peNRE4J-5" value="" style="endArrow=none;html=1;rounded=0;fontFamily=Computer Modern;" parent="1" edge="1">
          <mxGeometry width="50" height="50" relative="1" as="geometry">
            <mxPoint x="276" y="450" as="sourcePoint" />
            <mxPoint x="306" y="510" as="targetPoint" />
          </mxGeometry>
        </mxCell>
        <mxCell id="4gS_K6R-Jrko7peNRE4J-6" value="" style="endArrow=none;html=1;rounded=0;fontFamily=Computer Modern;" parent="1" edge="1">
          <mxGeometry width="50" height="50" relative="1" as="geometry">
            <mxPoint x="316" y="450" as="sourcePoint" />
            <mxPoint x="326" y="470" as="targetPoint" />
          </mxGeometry>
        </mxCell>
        <mxCell id="4gS_K6R-Jrko7peNRE4J-7" value="" style="endArrow=none;html=1;rounded=0;fontFamily=Computer Modern;" parent="1" edge="1">
          <mxGeometry width="50" height="50" relative="1" as="geometry">
            <mxPoint x="336" y="450" as="sourcePoint" />
            <mxPoint x="326" y="470" as="targetPoint" />
          </mxGeometry>
        </mxCell>
        <mxCell id="4gS_K6R-Jrko7peNRE4J-8" value="" style="endArrow=none;html=1;rounded=0;fontFamily=Computer Modern;" parent="1" edge="1">
          <mxGeometry width="50" height="50" relative="1" as="geometry">
            <mxPoint x="336" y="450" as="sourcePoint" />
            <mxPoint x="376" y="450" as="targetPoint" />
          </mxGeometry>
        </mxCell>
        <mxCell id="4gS_K6R-Jrko7peNRE4J-9" value="" style="endArrow=none;html=1;rounded=0;fontFamily=Computer Modern;" parent="1" edge="1">
          <mxGeometry width="50" height="50" relative="1" as="geometry">
            <mxPoint x="376" y="450" as="sourcePoint" />
            <mxPoint x="346" y="510" as="targetPoint" />
          </mxGeometry>
        </mxCell>
        <mxCell id="4gS_K6R-Jrko7peNRE4J-10" value="" style="endArrow=none;html=1;rounded=0;fontFamily=Computer Modern;" parent="1" edge="1">
          <mxGeometry width="50" height="50" relative="1" as="geometry">
            <mxPoint x="306" y="510" as="sourcePoint" />
            <mxPoint x="346" y="510" as="targetPoint" />
          </mxGeometry>
        </mxCell>
        <mxCell id="4gS_K6R-Jrko7peNRE4J-11" value="Arithmetic&lt;br&gt;Logic Unit" style="text;html=1;strokeColor=none;fillColor=none;align=center;verticalAlign=middle;whiteSpace=wrap;rounded=0;fontFamily=Computer Modern;" parent="1" vertex="1">
          <mxGeometry x="291.25" y="465" width="69.5" height="34" as="geometry" />
        </mxCell>
        <mxCell id="4gS_K6R-Jrko7peNRE4J-12" value="" style="rounded=0;whiteSpace=wrap;html=1;fontFamily=Computer Modern;" parent="1" vertex="1">
          <mxGeometry x="276" y="370" width="100" height="20" as="geometry" />
        </mxCell>
        <mxCell id="4gS_K6R-Jrko7peNRE4J-13" value="" style="endArrow=open;endFill=1;endSize=12;html=1;rounded=0;exitX=0.5;exitY=1;exitDx=0;exitDy=0;fontFamily=Computer Modern;" parent="1" source="4gS_K6R-Jrko7peNRE4J-20" edge="1">
          <mxGeometry width="160" relative="1" as="geometry">
            <mxPoint x="296" y="410" as="sourcePoint" />
            <mxPoint x="296" y="450" as="targetPoint" />
          </mxGeometry>
        </mxCell>
        <mxCell id="4gS_K6R-Jrko7peNRE4J-14" value="" style="endArrow=open;endFill=1;endSize=12;html=1;rounded=0;exitX=0.5;exitY=1;exitDx=0;exitDy=0;fontFamily=Computer Modern;" parent="1" source="4gS_K6R-Jrko7peNRE4J-19" edge="1">
          <mxGeometry width="160" relative="1" as="geometry">
            <mxPoint x="355" y="410" as="sourcePoint" />
            <mxPoint x="355" y="450" as="targetPoint" />
          </mxGeometry>
        </mxCell>
        <mxCell id="4gS_K6R-Jrko7peNRE4J-15" value="" style="endArrow=open;endFill=1;endSize=12;html=1;rounded=0;entryX=0;entryY=0.5;entryDx=0;entryDy=0;fontFamily=Computer Modern;" parent="1" target="4gS_K6R-Jrko7peNRE4J-3" edge="1">
          <mxGeometry width="160" relative="1" as="geometry">
            <mxPoint x="325.83" y="510" as="sourcePoint" />
            <mxPoint x="325.83" y="550" as="targetPoint" />
            <Array as="points">
              <mxPoint x="326" y="530" />
              <mxPoint x="246" y="530" />
              <mxPoint x="246" y="400" />
            </Array>
          </mxGeometry>
        </mxCell>
        <mxCell id="4gS_K6R-Jrko7peNRE4J-16" value="" style="endArrow=none;dashed=1;html=1;dashPattern=1 3;strokeWidth=2;rounded=0;fontFamily=Computer Modern;" parent="1" edge="1">
          <mxGeometry width="50" height="50" relative="1" as="geometry">
            <mxPoint x="301" y="420" as="sourcePoint" />
            <mxPoint x="351" y="420" as="targetPoint" />
          </mxGeometry>
        </mxCell>
        <mxCell id="4gS_K6R-Jrko7peNRE4J-17" value="" style="endArrow=open;endFill=1;endSize=12;html=1;rounded=0;entryX=0;entryY=0.5;entryDx=0;entryDy=0;fontFamily=Computer Modern;" parent="1" target="4gS_K6R-Jrko7peNRE4J-12" edge="1">
          <mxGeometry width="160" relative="1" as="geometry">
            <mxPoint x="226" y="380" as="sourcePoint" />
            <mxPoint x="216" y="380" as="targetPoint" />
          </mxGeometry>
        </mxCell>
        <mxCell id="4gS_K6R-Jrko7peNRE4J-18" value="Stack pointer (SP)" style="text;html=1;strokeColor=none;fillColor=none;align=center;verticalAlign=middle;whiteSpace=wrap;rounded=0;fontFamily=Computer Modern;" parent="1" vertex="1">
          <mxGeometry x="170" y="357" width="94" height="20" as="geometry" />
        </mxCell>
        <mxCell id="4gS_K6R-Jrko7peNRE4J-19" value="" style="ellipse;whiteSpace=wrap;html=1;aspect=fixed;strokeColor=none;fillColor=#0D0D0D;fontFamily=Computer Modern;" parent="1" vertex="1">
          <mxGeometry x="352" y="377" width="6" height="6" as="geometry" />
        </mxCell>
        <mxCell id="4gS_K6R-Jrko7peNRE4J-20" value="" style="ellipse;whiteSpace=wrap;html=1;aspect=fixed;strokeColor=none;fillColor=#0D0D0D;fontFamily=Computer Modern;" parent="1" vertex="1">
          <mxGeometry x="293" y="397" width="6" height="6" as="geometry" />
        </mxCell>
        <mxCell id="4gS_K6R-Jrko7peNRE4J-21" value="CPU" style="shape=umlFrame;whiteSpace=wrap;html=1;pointerEvents=0;fontFamily=Computer Modern;width=40;height=30;" parent="1" vertex="1">
          <mxGeometry x="160" y="320" width="230" height="230" as="geometry" />
        </mxCell>
        <mxCell id="4gS_K6R-Jrko7peNRE4J-22" value="" style="rounded=0;whiteSpace=wrap;html=1;fontFamily=Computer Modern;" parent="1" vertex="1">
          <mxGeometry x="432" y="430" width="100" height="20" as="geometry" />
        </mxCell>
        <mxCell id="4gS_K6R-Jrko7peNRE4J-23" value="" style="rounded=0;whiteSpace=wrap;html=1;fontFamily=Computer Modern;" parent="1" vertex="1">
          <mxGeometry x="432" y="370" width="100" height="20" as="geometry" />
        </mxCell>
        <mxCell id="4gS_K6R-Jrko7peNRE4J-24" value="" style="endArrow=none;dashed=1;html=1;dashPattern=1 3;strokeWidth=2;rounded=0;fontFamily=Computer Modern;" parent="1" edge="1">
          <mxGeometry width="50" height="50" relative="1" as="geometry">
            <mxPoint x="457" y="460" as="sourcePoint" />
            <mxPoint x="507" y="460" as="targetPoint" />
          </mxGeometry>
        </mxCell>
        <mxCell id="4gS_K6R-Jrko7peNRE4J-25" value="" style="endArrow=none;dashed=1;html=1;dashPattern=1 3;strokeWidth=2;rounded=0;fontFamily=Computer Modern;" parent="1" edge="1">
          <mxGeometry width="50" height="50" relative="1" as="geometry">
            <mxPoint x="457" y="360" as="sourcePoint" />
            <mxPoint x="507" y="360" as="targetPoint" />
          </mxGeometry>
        </mxCell>
        <mxCell id="4gS_K6R-Jrko7peNRE4J-26" value="" style="rounded=0;whiteSpace=wrap;html=1;fontFamily=Computer Modern;" parent="1" vertex="1">
          <mxGeometry x="432" y="390" width="100" height="20" as="geometry" />
        </mxCell>
        <mxCell id="4gS_K6R-Jrko7peNRE4J-27" value="" style="rounded=0;whiteSpace=wrap;html=1;fontFamily=Computer Modern;" parent="1" vertex="1">
          <mxGeometry x="432" y="410" width="100" height="20" as="geometry" />
        </mxCell>
        <mxCell id="4gS_K6R-Jrko7peNRE4J-28" value="Memory" style="shape=umlFrame;whiteSpace=wrap;html=1;pointerEvents=0;fontFamily=Computer Modern;" parent="1" vertex="1">
          <mxGeometry x="411" y="320" width="138" height="163" as="geometry" />
        </mxCell>
        <mxCell id="VKuwZ4_nYhYi5HFeKoRU-1" value="result" style="text;html=1;strokeColor=none;fillColor=none;align=center;verticalAlign=middle;whiteSpace=wrap;rounded=0;fontFamily=Computer Modern;" vertex="1" parent="1">
          <mxGeometry x="323" y="510" width="47" height="20" as="geometry" />
        </mxCell>
        <mxCell id="VKuwZ4_nYhYi5HFeKoRU-2" value="op1" style="text;html=1;strokeColor=none;fillColor=none;align=center;verticalAlign=middle;whiteSpace=wrap;rounded=0;fontFamily=Computer Modern;" vertex="1" parent="1">
          <mxGeometry x="260" y="430" width="30" height="20" as="geometry" />
        </mxCell>
        <mxCell id="VKuwZ4_nYhYi5HFeKoRU-3" value="op2" style="text;html=1;strokeColor=none;fillColor=none;align=center;verticalAlign=middle;whiteSpace=wrap;rounded=0;fontFamily=Computer Modern;" vertex="1" parent="1">
          <mxGeometry x="359.75" y="430" width="30" height="20" as="geometry" />
        </mxCell>
      </root>
    </mxGraphModel>
  </diagram>
</mxfile>
